<svg xmlns="http://www.w3.org/2000/svg" viewBox="0 0 14.82 12.94"><defs><style>.cls-1{fill:#fff;}</style></defs><title>Fichier 2</title><g id="Calque_2" data-name="Calque 2"><g id="Calque_1-2" data-name="Calque 1"><g id="Calque_2-2" data-name="Calque 2"><g id="Calque_1-2-2" data-name="Calque 1-2"><path class="cls-1" d="M14.82,6.47a.46.46,0,0,0-.06-.23l-3.47-6a.46.46,0,0,0-.4-.23h-.26a.14.14,0,0,0-.12.22l2.94,5.12a.46.46,0,0,1-.39.69h0a.46.46,0,0,1-.4-.23L11.66,4a.29.29,0,0,0-.25-.14H8.06a.14.14,0,0,0-.12.22L8.62,5.3a.46.46,0,0,1-.4.69h0a.46.46,0,0,1-.4-.23L4.58.14A.29.29,0,0,0,4.33,0H3.94a.46.46,0,0,0-.4.23l-3.48,6a.46.46,0,0,0,0,.46l.13.23a.14.14,0,0,0,.25,0l3-5.11a.46.46,0,0,1,.79,0h0a.46.46,0,0,1,0,.46L3.23,4a.29.29,0,0,0,0,.29L4.89,7.16a.14.14,0,0,0,.25,0L5.82,6a.46.46,0,0,1,.79,0h0a.46.46,0,0,1,0,.46L3.34,12.08a.29.29,0,0,0,0,.29l.2.34a.46.46,0,0,0,.4.23h7a.46.46,0,0,0,.39-.21h0l.13-.22a.14.14,0,0,0-.12-.22H5.44A.46.46,0,0,1,5,11.6H5a.46.46,0,0,1,.4-.23h2a.29.29,0,0,0,.25-.14L9.35,8.35a.14.14,0,0,0-.12-.22H7.8a.46.46,0,0,1-.4-.69h0a.46.46,0,0,1,.4-.23h6.5A.29.29,0,0,0,14.56,7l.2-.35A.46.46,0,0,0,14.82,6.47Z"/><path class="cls-1" d="M4.39,8.16,2.73,5.28a.14.14,0,0,0-.25,0L.94,7.93a.29.29,0,0,0,0,.29L2.6,11.1a.14.14,0,0,0,.25,0L4.39,8.45A.29.29,0,0,0,4.39,8.16Z"/><path class="cls-1" d="M7.21,2.86A.29.29,0,0,0,7.46,3h3.33a.14.14,0,0,0,.12-.22L9.4.14A.29.29,0,0,0,9.15,0H5.82A.14.14,0,0,0,5.7.22Z"/><path class="cls-1" d="M13.69,8.12h-3a.29.29,0,0,0-.25.14L8.78,11.14a.14.14,0,0,0,.12.22H12a.29.29,0,0,0,.25-.14l1.66-2.88a.14.14,0,0,0-.17-.22Z"/></g></g></g></g></svg>