<?xml version="1.0" encoding="utf-8"?>
<!-- Generator: Adobe Illustrator 21.1.0, SVG Export Plug-In . SVG Version: 6.00 Build 0)  -->
<svg version="1.1" id="Calque_1" xmlns="http://www.w3.org/2000/svg" xmlns:xlink="http://www.w3.org/1999/xlink" x="0px" y="0px"
	 viewBox="0 0 225.1 219.2" style="enable-background:new 0 0 225.1 219.2;" xml:space="preserve">
<style type="text/css">
	.st0{fill:#FFFFFF;}
</style>
<title>pen</title>
<g id="Calque_2">
	<g id="pencil">
		<path class="st0" d="M212.3,12.2C194.8-4.8,165.5-3.9,147,14L13.6,143.6L0.3,205c-1.4,6.3,2.6,12.6,8.9,14c1.6,0.4,3.3,0.4,4.9,0
			l63.2-13L210.6,76.5c9.2-8.9,14.5-21,14.6-33.8C225.2,31.2,220.6,20.2,212.3,12.2z M44.2,145.9l97.4-94.5l30.5,30.5l-97.4,94.5
			L44.2,145.9z M32.2,166.4l21,21L26.4,193L32.2,166.4z M194.5,60l-6,5.8L158,35.4l5-4.8c9.5-9.2,24.8-10.1,33.3-1.8
			c3.8,3.7,5.9,8.7,5.8,14C202,49.3,199.3,55.5,194.5,60z"/>
	</g>
</g>
</svg>
