<?xml version="1.0" encoding="utf-8"?>
<!-- Generator: Adobe Illustrator 21.1.0, SVG Export Plug-In . SVG Version: 6.00 Build 0)  -->
<svg version="1.1" id="Calque_1" xmlns="http://www.w3.org/2000/svg" xmlns:xlink="http://www.w3.org/1999/xlink" x="0px" y="0px"
	 viewBox="0 0 256 256" style="enable-background:new 0 0 256 256;" xml:space="preserve">
<style type="text/css">
	.st0{fill:#FFFFFF;}
</style>
<title>Hackages__icons</title>
<g id="share">
	<path class="st0" d="M189.9,141.6c-14.1,0-27.5,6.2-36.6,17l-40.4-20c1.5-6.7,1.6-13.7,0.2-20.5l40.6-20.2
		c17.5,20.1,47.9,22.2,67.9,4.7s22.2-47.9,4.7-67.9s-47.9-22.2-67.9-4.7c-13.5,11.8-19.4,30-15.2,47.5l-40,19.9
		c-16.9-20.5-47.3-23.5-67.8-6.5s-23.5,47.3-6.5,67.8s47.3,23.5,67.8,6.5c2.2-1.8,4.2-3.8,6.1-6l40.4,20
		c-5.8,25.9,10.5,51.6,36.4,57.4s51.6-10.5,57.4-36.4c5.8-25.9-10.5-51.6-36.4-57.4C197,142,193.5,141.6,189.9,141.6L189.9,141.6z
		 M189.9,41.1c13.9,0,25.2,11.2,25.2,25.1c0,13.9-11.2,25.2-25.1,25.2c-13.9,0-25.2-11.2-25.2-25.1c0,0,0-0.1,0-0.1
		C164.9,52.4,176.1,41.2,189.9,41.1z M66.1,153.1c-13.9,0-25.2-11.2-25.2-25.1s11.2-25.2,25.1-25.2c13.9,0,25.2,11.2,25.2,25.1
		c0,0,0,0.1,0,0.1C91.2,141.9,79.9,153.1,66.1,153.1L66.1,153.1z M189.9,214.8c-13.9,0-25.2-11.2-25.2-25.1s11.2-25.2,25.1-25.2
		c13.9,0,25.2,11.2,25.2,25.1c0,0,0,0.1,0,0.1C215,203.6,203.8,214.8,189.9,214.8L189.9,214.8z"/>
</g>
</svg>
