<?xml version="1.0" encoding="utf-8"?>
<!-- Generator: Adobe Illustrator 21.1.0, SVG Export Plug-In . SVG Version: 6.00 Build 0)  -->
<svg version="1.1" id="Calque_1" xmlns="http://www.w3.org/2000/svg" xmlns:xlink="http://www.w3.org/1999/xlink" x="0px" y="0px"
	 viewBox="0 0 224 166" style="enable-background:new 0 0 224 166;" xml:space="preserve">
<style type="text/css">
	.st0{fill:#FFFFFF;}
</style>
<title>web</title>
<g id="Calque_2">
	<g id="web">
		<path class="st0" d="M224,13.5C224,6,218,0,210.5,0h-197C6,0,0,6,0,13.5v139C0,160,6,166,13.5,166l0,0h197c7.5,0,13.5-6,13.5-13.5
			l0,0V13.5z M201,44h-46V23h46V44z M137,23v21H23V23H137z M23,143V62h178v81H23z"/>
		<path class="st0" d="M157,95H67c-5,0-9,4-9,9s4,9,9,9h90c5,0,9-4,9-9S162,95,157,95z"/>
	</g>
</g>
</svg>
